<svg xmlns="http://www.w3.org/2000/svg" viewBox="0 0 172.06 73.66">
  <title>Joseph Joseph</title>
  <g fill="#2C2C2C">
    <path d="m15.02,20.1V.42h-3.14v19.68C11.88,28.64,5.1,29.87.02,29.87v2.78c5.01,0,15-.37,15-12.55"></path>
    <path d="m32.18,32.65c8.14,0,14.99-6.62,14.99-14.52s-6.68-14.82-14.99-14.82-14.99,6.62-14.99,14.82,6.83,14.52,14.99,14.52m0-26.67c6.63,0,12.01,5.42,12.01,12.15s-5.51,11.85-12.01,11.85-12.01-5.42-12.01-11.85,5.37-12.15,12.01-12.15"></path>
    <path d="m60.34,30.09c-4.66,0-7.86-2.16-8.45-5.9h-3.52c.29,5.06,4.83,8.45,11.79,8.45s11.99-3.74,11.99-8.36c0-2.33-1.48-4.63-3.9-6.11-1.77-1.07-2.65-1.33-7.33-2.25-5.84-1.18-8.36-2.42-8.36-5.01,0-2.84,3.59-5.04,7.42-5.04s7.52,2.07,7.83,5.12h3.45c0-4.32-4.77-7.68-10.86-7.68-6.43,0-11.16,3.23-11.16,7.68,0,1.96,1.01,3.75,2.79,5.02,1.59,1.14,3.29,1.73,7.37,2.45,6.14,1.14,9.34,2.93,9.34,5.94s-4.14,5.69-8.4,5.69"></path>
    <path d="m88.78,32.65c6.85,0,12.75-4.67,14.48-10.84h-3.08c-1.61,4.69-6.18,8.16-11.39,8.16-6.17,0-11.44-4.86-11.97-10.82h26.92c.03-.33.04-.68.04-1.02,0-8.24-6.66-14.82-14.99-14.82s-14.98,6.62-14.98,14.82,6.84,14.52,14.98,14.52m0-26.67c6.1,0,11.13,4.58,11.91,10.52h-23.83c.79-5.95,5.83-10.52,11.92-10.52"></path>
    <path d="m109.88,27.33s3.58,5.25,11.82,5.25c9.99,0,15.4-7.54,15.4-14.62s-5.4-14.65-15.4-14.65-15.23,7.53-15.23,14.65v18.8h3.42v-9.43Zm11.82-21.55c6.82,0,12.15,5.36,12.15,12.18s-5.34,12.16-12.15,12.16-12.16-5.35-12.16-12.16,5.33-12.18,12.16-12.18"></path>
    <path d="m142.84,16.31c0-5.41,4.79-9.71,10.15-9.71s8.99,4.3,8.99,9.71v15.81h3.2V15.71c0-7.39-4.87-12.35-12.14-12.35-8.2,0-10.21,6.02-10.21,6.02V.42h-3.19v31.71h3.19v-15.81Z"></path>
    <path d="m10.16,54.67c0,6.18-3.16,9.06-9.95,9.06h-.21v5.41h.21c10.9,0,16.2-4.74,16.2-14.52v-19.64h-6.24v19.69Z"></path>
    <path d="m32.72,38.85c-8.38,0-15.2,6.83-15.2,15.21s6.84,15.08,15.24,15.08,15.21-6.78,15.21-15.11-6.83-15.18-15.25-15.18m.04,24.73c-5.15,0-9.33-4.27-9.33-9.52s4.16-9.65,9.29-9.65,9.34,4.32,9.34,9.61-4.17,9.56-9.3,9.56"></path>
    <path d="m63.63,50.76c-5.6-1.37-7.45-2.11-7.45-3.81s2.51-2.69,4.95-2.69c2.26,0,4.85,1.15,5.07,3.03l.02.17h7.06v-.22c-.32-4.78-5.48-8.38-12.03-8.38s-11.96,3.78-11.96,8.27c0,2.35,1.26,4.58,3.46,6.11,1.69,1.23,2.65,1.57,8.51,3.09,4.28,1.12,6.02,2.3,6.02,4.08,0,2.01-3.09,3.37-5.97,3.37-3.44,0-5.7-1.58-5.8-3.65v-.2h-7.26l.02.23c.37,5.19,5.5,8.98,12.79,8.98s13.21-4.15,13.21-9.47c0-4.41-3.18-7.07-10.65-8.91"></path>
    <path d="m89.84,38.85c-8.38,0-15.21,6.83-15.21,15.22s6.85,15.07,15.26,15.07c6.31,0,12.04-3.94,14.24-9.83l.1-.29h-6.42l-.06.1c-1.72,2.79-4.67,4.46-7.86,4.46-4.13,0-7.76-2.79-8.94-6.8h23.89l.03-.18c.15-.84.22-1.72.22-2.58,0-8.36-6.85-15.18-15.25-15.18m-8.92,12.55c1.13-4.11,4.76-6.98,8.92-6.98s7.85,2.87,8.98,6.98h-17.9Z"></path>
    <path d="m152.5,38.87c-2.77,0-5.47,1.13-7.53,3.07v-6.96h-5.91v33.6h5.91v-16.18c0-4.76,3.79-7.25,7.53-7.25s6.82,3.18,6.82,7.25v16.18h5.88v-16.72c0-7.65-5.22-12.99-12.71-12.99"></path>
    <path d="m121.99,38.84c-10.19,0-15.69,7.79-15.69,15.14v19.68h6.51v-7.19c2.6,1.72,5.77,2.66,9.19,2.66,10.3,0,15.87-7.81,15.87-15.15s-5.56-15.14-15.87-15.14m0,24.8c-5.51,0-9.66-4.15-9.66-9.67s4.15-9.66,9.66-9.66,9.66,4.16,9.66,9.66-4.16,9.67-9.66,9.67"></path>
    <path d="m168.06,0c-2.13,0-3.87,1.73-3.87,3.87s1.73,3.86,3.87,3.86,3.85-1.74,3.85-3.86-1.73-3.87-3.85-3.87m0,7.07c-1.76,0-3.19-1.43-3.19-3.2s1.43-3.21,3.19-3.21,3.16,1.44,3.16,3.21-1.43,3.2-3.16,3.2"></path>
    <path d="m169.74,5.04c0-.81-.19-.94-.53-1.1.41-.15.66-.57.66-1.05,0-.38-.22-1.23-1.32-1.23h-2.11v4.36h.85v-1.7h.92c.63,0,.66.23.66.82,0,.45.04.68.1.88h.96v-.12c-.19-.07-.19-.22-.19-.87m-1.43-1.45h-1.03v-1.17h1.08c.52,0,.62.34.62.57,0,.43-.22.6-.67.6"></path>
  </g>
</svg>
